<svg xmlns="http://www.w3.org/2000/svg" version="1.1" xmlns:xlink="http://www.w3.org/1999/xlink" xmlns:svgjs="http://svgjs.dev/svgjs" viewBox="0 0 800 800"><defs><linearGradient x1="50%" y1="0%" x2="50%" y2="100%" id="ccchaos-grad"><stop stop-color="hsl(180, 69%, 40%)" stop-opacity="1" offset="0%"></stop><stop stop-color="hsl(180, 69%, 60%)" stop-opacity="1" offset="100%"></stop></linearGradient></defs><g stroke-width="2" stroke="url(#ccchaos-grad)" fill="none" stroke-linecap="round"><path d="M383.62 118.1C393.11 123.05 402.64 127.08 412.22 129.71 421.82 130.27 431.49 129.34 441.21 127.3 450.99 124.19 460.86 121.24 470.83 119.11 480.89 117.9 491.07 118.58 501.38 121.36 511.8 125.89 522.36 132.41 533.02 140.53 543.79 149.57 554.64 159.29 565.52 169.18 576.41 178.59 587.24 187.39 597.89 195.35 608.39 202.07 618.56 207.84 628.25 212.81 637.54 216.7 646.14 220.19 653.87 223.53 660.95 226.45 666.96 229.72 671.78 233.5 675.75 237.46 678.42 242.2 679.74 247.76 680.24 253.75 679.48 260.56 677.53 268.11 675.09 276.07 671.78 284.64 667.79 293.66 663.93 302.97 659.88 312.58 655.88 322.35 652.74 332.26 650.13 342.22 648.28 352.12 647.81 362.06 648.34 371.87 649.92 381.46 652.95 391.06 656.79 400.2 661.2 408.89 666.49 417.6 671.85 425.89 676.98 433.84 682.19 441.9 686.64 449.76 690.11 457.54 692.96 465.64 694.48 473.91 694.57 482.52 693.69 491.75 691.29 501.61 687.45 512.24 682.62 523.68 676.47 536 669.17 549.17 661.14 562.9 652.21 577.12 642.57 591.47 632.55 605.43 622.07 618.61 611.32 630.38 600.49 640.34 589.57 647.91 578.67 652.62 567.9 654.76 557.24 653.96 546.75 650.5 536.47 645.72 526.37 639.79 516.45 633.83 506.74 629.61 497.18 627.57 487.74 628.66 478.47 633.78 469.26 642.6 460.1 654.65 451.04 669.1 441.97 684.33 432.87 698.56 423.81 710.32 414.69 717.83 405.5 719.98 396.32 716.94 387.05 708.65 377.71 696.28 368.36 682.33 359.15 668.59 350.12 657.08 341.08 649.59 332.23 646.6 323.58 648.1 314.96 653.98 306.56 662.49 298.43 672.02 290.33 681.62 282.51 689.08 275 693.23 267.53 693.89 260.37 690.21 253.56 682.5 246.77 671.6 240.31 658.13 234.2 643.18 228.08 627.79 222.28 612.88 216.79 599.2 211.23 587.32 205.95 577.49 200.93 569.69 193.29 562.07 178.73 554.95 171.7 552.82 164.44 550.49 150.32 540.7 143.53 532.73 138.89 526.55 134.5 519.39 130.42 511.4 126.27 503.07 122.5 494.12 119.17 484.71 115.91 475.14 113.17 465.27 111.03 455.22 109.07 445.13 107.78 434.94 107.21 424.71 106.91 414.47 107.37 404.42 108.56 394.55 110.02 384.65 112.18 374.85 114.99 365.12 118 355.26 121.6 345.36 125.72 335.34 129.94 325.1 134.6 314.65 139.65 303.96 144.66 293 149.98 281.78 155.56 270.35 160.99 258.81 166.62 247.22 172.41 235.75 178 224.58 183.72 213.89 189.57 203.96 195.19 194.87 200.94 186.93 206.82 180.37 212.5 174.96 218.34 171.02 224.36 168.5 230.21 166.75 236.29 165.94 242.59 165.7 248.79 165.09 255.25 164.18 261.99 162.54 268.66 159.39 275.63 155.01 282.9 149.35 290.14 142.24 297.68 134.41 305.53 126.39 313.36 118.5 321.49 111.73 329.9 106.71 338.3 103.52 346.99 102.76 355.95 104.44 364.9 107.72 374.12 112.52 383.61 118.1" stroke-dasharray="2 5" transform="rotate(0, 400, 400)" opacity="1.00"></path><path d="M387.47 129.22C396.67 134.13 405.96 138.21 415.32 140.98 424.7 141.79 434.17 141.15 443.73 139.39 453.33 136.47 463.04 133.52 472.84 131.16 482.72 129.46 492.72 129.41 502.82 131.25 513 134.73 523.29 140.19 533.63 147.34 544.03 155.61 554.44 164.85 564.81 174.56 575.13 184.15 585.32 193.46 595.25 202.18 604.97 209.91 614.3 216.78 623.08 222.83 631.44 227.79 639.09 232.16 645.86 236.15 654.56 241.17 665.33 251.95 667.15 258.59 667.26 263.44 666.26 269 664.22 275.26 661.81 281.81 658.67 288.99 654.96 296.71 651.44 304.66 647.79 313.03 644.23 321.7 641.48 330.51 639.24 339.51 637.67 348.61 637.37 357.75 637.96 366.92 639.48 376.08 642.33 385.23 645.88 394.13 649.95 402.79 654.85 411.48 659.81 420 664.59 428.4 669.49 436.95 673.74 445.52 677.13 454.25 680.03 463.3 681.74 472.7 682.18 482.57 681.77 492.96 679.99 503.99 676.86 515.7 672.84 527.93 667.57 540.78 661.18 554.1 654.07 567.5 646.05 580.9 637.29 593.88 628.1 606 618.4 616.88 608.32 625.99 598.11 633.17 587.7 637.94 577.23 640.03 566.81 640.02 556.41 637.64 546.12 633.34 535.98 628.47 525.96 623.24 516.09 618.63 506.4 616.18 496.84 616.15 487.4 619.21 478.12 625.95 468.91 635.87 459.79 648.38 450.75 662.62 441.75 677.08 432.76 690.17 423.83 700.66 414.88 707.04 405.91 708.42 396.96 705.07 387.97 696.97 378.95 685.16 369.94 671.9 361.1 658.75 352.47 647.49 343.84 639.77 335.41 636.07 327.22 636.48 319.03 641.06 311.09 648.34 303.42 656.99 295.76 666.24 288.39 674.04 281.32 679.26 274.26 681.65 267.51 680.17 261.08 674.9 254.64 666.47 248.52 655.15 242.71 641.86 236.86 627.49 231.3 612.84 226.02 598.7 220.64 585.66 215.51 574.13 210.61 564.31 205.56 556.39 200.69 550.11 196 545.19 188.72 540.33 174.51 533.54 167.57 529.74 162.77 526.97 158.13 523.35 153.69 518.83 149.08 514.01 144.73 508.26 140.68 501.68 136.57 494.82 132.84 487.23 129.54 479.03 126.31 470.68 123.6 461.85 121.47 452.64 119.52 443.37 118.23 433.8 117.64 423.97 117.33 414.13 117.75 404.28 118.89 394.42 120.3 384.53 122.39 374.59 125.12 364.57 128.06 354.46 131.57 344.21 135.6 333.78 139.73 323.22 144.31 312.45 149.26 301.49 154.21 290.44 159.46 279.25 164.96 268.02 170.35 256.92 175.94 246 181.7 235.45 187.27 225.42 192.97 216.09 198.8 207.7 204.41 200.22 210.15 193.95 216 189.02 221.65 185.06 227.45 182.36 233.41 180.81 239.19 179.66 245.17 179.09 251.35 178.74 257.41 177.71 263.71 176.13 270.25 173.66 276.71 169.68 283.44 164.52 290.45 158.23 297.41 150.75 304.66 142.8 312.2 134.91 319.71 127.38 327.52 121.09 335.61 116.61 343.68 113.92 352.05 113.57 360.69 115.51 369.33 118.91 378.25 123.7 387.46 129.22" stroke-dasharray="0 3" transform="rotate(4.04, 400, 400)" opacity="0.96"></path><path d="M391.94 140.34C400.88 145.21 409.92 149.31 419.04 152.21 428.18 153.26 437.43 152.93 446.76 151.46 456.14 148.78 465.62 145.91 475.2 143.41 484.83 141.33 494.56 140.63 504.36 141.62 514.21 144.07 524.12 148.43 534.03 154.53 543.96 161.85 553.84 170.36 563.61 179.62 573.29 189.09 582.75 198.59 591.9 207.8 600.81 216.3 609.26 224.13 617.13 231.23 624.58 237.32 631.29 242.74 637.15 247.63 644.56 253.71 653.23 264.96 654.35 271.06 653.57 277.63 647.12 293.84 642.24 303.51 639.07 310.29 635.82 317.56 632.67 325.24 630.3 333.01 628.38 341.11 627.08 349.47 626.94 357.87 627.58 366.47 629.04 375.24 631.71 384.02 635 392.76 638.74 401.48 643.25 410.23 647.83 419.02 652.26 427.91 656.86 436.94 660.88 446.18 664.17 455.72 667.06 465.54 668.91 475.79 669.63 486.52 669.63 497.61 668.38 509.22 665.89 521.31 662.61 533.61 658.15 546.19 652.62 558.82 646.41 571.14 639.3 582.99 631.42 593.99 623.09 603.83 614.19 612.14 604.86 618.52 595.33 623.09 585.54 625.39 575.59 625.38 565.63 623.82 555.62 620.53 545.64 616.02 535.75 611.64 525.93 607.54 516.23 604.56 506.65 603.99 497.18 605.91 487.84 610.75 478.61 618.83 469.48 629.56 460.43 642.25 451.48 656.08 442.58 669.64 433.73 681.55 424.93 690.8 416.16 696.12 407.41 696.79 398.68 693.2 389.96 685.3 381.25 674.04 372.55 661.47 364.06 648.91 355.8 637.93 347.53 630.06 339.5 625.73 331.71 625.15 323.92 628.47 316.39 634.51 309.13 642.16 301.87 650.84 294.88 658.69 288.2 664.62 281.5 668.38 275.09 668.83 268.99 665.82 262.86 659.83 257.01 650.84 251.45 639.55 245.82 626.72 240.46 612.98 235.34 599.09 230.11 585.61 225.1 573.06 220.29 561.76 215.31 551.95 210.5 543.61 205.84 536.63 200.98 531.08 196.24 526.51 191.64 522.58 184.45 518.01 170.45 508.84 163.73 503.14 159.17 499.04 154.86 494.18 150.85 488.56 146.8 482.78 143.11 476.26 139.86 469.07 136.68 461.77 134 453.87 131.89 445.44 129.97 436.97 128.68 428.03 128.08 418.66 127.75 409.3 128.14 399.74 129.22 390.02 130.57 380.3 132.58 370.39 135.22 360.32 138.07 350.21 141.48 339.91 145.41 329.43 149.44 318.93 153.91 308.27 158.77 297.52 163.62 286.84 168.79 276.18 174.22 265.68 179.55 255.48 185.09 245.67 190.79 236.44 196.33 227.84 202.02 220.08 207.82 213.36 213.42 207.5 219.14 202.8 224.98 199.31 230.62 196.54 236.39 194.77 242.31 193.82 248.04 192.93 253.96 192.27 260.05 191.52 266 189.86 272.17 187.49 278.56 184.14 284.86 179.35 291.4 173.49 298.2 166.69 304.93 158.97 311.94 151.02 319.22 143.37 326.46 136.27 333.99 130.52 341.8 126.59 349.58 124.41 357.65 124.44 366.01 126.62 374.35 130.11 382.99 134.9 391.93 140.34" stroke-dasharray="2 10" transform="rotate(8.08, 400, 400)" opacity="0.92"></path><path d="M396.82 151.46C405.49 156.27 414.26 160.39 423.12 163.4 432 164.68 440.98 164.66 450.05 163.51 459.15 161.11 468.35 158.38 477.62 155.83 486.93 153.47 496.31 152.24 505.72 152.46 515.16 153.96 524.61 157.23 534.01 162.2 543.38 168.46 552.65 176.04 561.75 184.6 570.72 193.64 579.42 203.01 587.74 212.39 595.81 221.38 603.39 229.92 610.36 237.89 616.92 245.03 622.75 251.53 627.76 257.45 633.99 264.94 640.83 277.88 641.37 284.15 640.32 290.39 634.09 304.96 629.63 313.5 626.81 319.42 623.94 325.84 621.2 332.73 619.18 339.67 617.58 347.03 616.52 354.78 616.51 362.54 617.2 370.66 618.61 379.12 621.1 387.58 624.13 396.2 627.56 404.96 631.71 413.76 635.91 422.77 640 432.02 644.27 441.38 648.07 451.06 651.21 461.1 654.07 471.33 656 481.96 656.94 492.99 657.27 504.18 656.48 515.71 654.57 527.44 651.95 539.08 648.23 550.66 643.51 561.9 638.15 572.54 631.91 582.36 624.9 591.01 617.44 598.41 609.37 604.17 600.83 608.02 592.05 610.31 582.93 610.66 573.59 609.16 564.18 606.71 554.66 603.15 545.1 599.04 535.58 595.61 526.07 592.96 516.63 591.79 507.28 593.09 498 596.82 488.83 603.2 479.74 612.34 470.75 623.57 461.85 636.2 453.03 649.43 444.27 662 435.6 672.7 426.97 680.75 418.39 685.07 409.87 685.11 401.36 681.3 392.9 673.63 384.49 662.92 376.08 651.02 367.91 639.05 359.99 628.4 352.07 620.43 344.39 615.58 336.97 614.09 329.53 616.23 322.36 621.03 315.46 627.6 308.55 635.52 301.91 643.14 295.54 649.45 289.16 654.22 283.05 656.25 277.21 655.26 271.33 651.57 265.71 644.96 260.35 635.87 254.9 624.97 249.69 612.67 244.7 599.66 239.58 586.47 234.65 573.61 229.9 561.49 224.98 550.36 220.2 540.4 215.57 531.63 210.73 524.14 206.01 517.68 201.41 512.05 196.6 507.37 191.91 503.11 187.35 499.04 182.62 495.42 178.04 491.64 173.66 487.51 169.16 483.49 164.9 478.94 160.94 473.79 156.95 468.59 153.33 462.75 150.12 456.26 147 449.71 144.37 442.55 142.29 434.79 140.41 427 139.13 418.66 138.52 409.8 138.17 400.94 138.52 391.79 139.54 382.39 140.83 373 142.76 363.37 145.3 353.54 148.05 343.73 151.35 333.74 155.15 323.62 159.07 313.56 163.43 303.45 168.16 293.38 172.92 283.5 177.98 273.81 183.31 264.45 188.57 255.52 194.04 247.12 199.68 239.44 205.18 232.41 210.83 226.27 216.6 221.16 222.19 216.78 227.9 213.42 233.72 211.06 239.35 209.14 245.1 207.92 250.98 207.19 256.7 206.22 262.56 205.19 268.58 203.8 274.47 201.38 280.54 198.13 286.81 193.92 292.98 188.38 299.38 181.92 306 174.75 312.56 166.93 319.36 159.12 326.42 151.81 333.44 145.21 340.72 140.03 348.27 136.68 355.8 134.99 363.61 135.39 371.7 137.77 379.77 141.35 388.14 146.1 396.81 151.46" stroke-dasharray="11 7" transform="rotate(12.12, 400, 400)" opacity="0.89"></path><path d="M401.86 162.58C410.25 167.33 418.74 171.44 427.31 174.55 435.9 176.06 444.59 176.33 453.34 175.51 462.12 173.43 470.97 170.91 479.87 168.4 488.79 165.87 497.75 164.23 506.7 163.79 515.64 164.41 524.55 166.65 533.37 170.5 542.12 175.61 550.72 182.12 559.1 189.76 567.32 198.09 575.23 207.02 582.73 216.23 589.96 225.35 596.67 234.29 602.78 242.87 608.5 250.85 613.51 258.29 617.73 265.2 622.91 274.24 628.18 289.65 628.28 296.67 627.06 303.27 621.16 317.53 617.15 325.53 614.68 330.97 612.18 336.88 609.81 343.26 608.13 349.63 606.82 356.47 605.98 363.76 606.1 371.05 606.83 378.79 608.17 386.98 610.49 395.17 613.28 403.63 616.41 412.36 620.21 421.12 624.06 430.18 627.8 439.54 631.76 448.98 635.31 458.76 638.29 468.85 641.07 479.03 643.05 489.52 644.14 500.23 644.74 510.92 644.33 521.7 642.92 532.41 640.89 542.8 637.85 552.81 633.87 562.18 629.31 570.78 623.89 578.33 617.73 584.57 611.12 589.61 603.89 593.06 596.16 594.79 588.15 595.34 579.76 594.34 571.1 592.03 562.32 589.32 553.37 586.09 544.32 582.87 535.26 580.75 526.16 579.75 517.08 580.42 508.05 583.5 499.05 588.83 490.14 596.47 481.29 606.35 472.51 617.81 463.82 630.14 455.19 642.61 446.64 654.11 438.17 663.6 429.74 670.5 421.38 673.89 413.1 673.36 404.84 669.4 396.63 661.96 388.51 651.81 380.39 640.56 372.52 629.18 364.91 618.88 357.3 610.89 349.94 605.61 342.84 603.32 335.72 604.35 328.87 607.93 322.28 613.37 315.67 620.39 309.32 627.54 303.23 633.93 294.17 640.96 277.23 639.51 269.3 630.52 264 621.77 258.9 611.32 254 599.72 248.96 587.46 244.09 574.98 239.38 562.74 234.5 550.99 229.75 540 225.13 529.93 220.31 520.84 215.6 512.71 211.01 505.44 206.22 499.07 201.55 493.31 197.02 487.96 192.33 483.19 187.8 478.51 183.47 473.77 179.03 469.29 174.84 464.52 170.95 459.36 167.04 454.27 163.49 448.68 160.34 442.56 157.3 436.43 154.72 429.74 152.68 422.49 150.83 415.23 149.57 407.42 148.95 399.07 148.59 390.73 148.91 382.08 149.87 373.17 151.09 364.28 152.93 355.15 155.36 345.86 158 336.63 161.18 327.28 164.84 317.89 168.64 308.64 172.86 299.45 177.45 290.44 182.09 281.7 187.03 273.28 192.25 265.33 197.41 257.84 202.79 250.99 208.36 244.9 213.8 239.4 219.4 234.77 225.12 231.06 230.69 227.88 236.37 225.52 242.16 223.92 247.78 222.46 253.52 221.41 259.37 220.55 265.06 219.19 270.89 217.55 276.85 215.36 282.69 212.09 288.69 207.97 294.87 202.94 300.94 196.77 307.22 189.86 313.7 182.48 320.11 174.69 326.75 167.14 333.62 160.27 340.44 154.23 347.51 149.65 354.84 146.86 362.13 145.66 369.7 146.41 377.53 148.98 385.35 152.61 393.46 157.32 401.85 162.57" stroke-dasharray="2 3" transform="rotate(16.16, 400, 400)" opacity="0.85"></path><path d="M406.8 173.7C414.91 178.37 423.1 182.47 431.35 185.66 439.62 187.38 447.96 187.95 456.36 187.47 464.76 185.73 473.21 183.47 481.68 181.08 490.15 178.49 498.62 176.56 507.05 175.58 515.44 175.44 523.76 176.73 531.94 179.49 540.03 183.44 547.92 188.79 555.55 195.35 563.01 202.75 570.12 210.95 576.8 219.66 583.21 228.56 589.11 237.53 594.4 246.39 599.33 254.89 603.59 263.03 607.1 270.75 610.2 277.88 612.52 284.57 614.04 290.89 615.33 299.41 613.8 315.01 611.32 322.62 609.46 327.51 607.25 332.65 604.8 338.1 602.67 343.44 600.53 349.17 598.52 355.3 597.14 361.4 596.1 367.94 595.47 374.93 595.7 381.91 596.45 389.37 597.73 397.31 599.89 405.25 602.45 413.51 605.3 422.06 608.75 430.64 612.26 439.52 615.67 448.69 619.32 457.89 622.6 467.36 625.41 477.04 628.08 486.71 630.05 496.52 631.25 506.36 632.05 516.03 631.96 525.55 630.97 534.73 629.45 543.46 627.01 551.57 623.71 558.84 619.88 565.3 615.24 570.62 609.88 574.63 604.1 577.63 597.7 579.22 590.77 579.4 583.56 578.81 575.93 577.13 567.99 574.65 559.89 572.27 551.57 569.86 543.11 567.9 534.59 567.31 525.98 568.05 517.35 570.5 508.72 575.18 500.1 581.85 491.53 590.43 482.99 600.76 474.5 612.18 466.09 624 457.72 635.58 449.42 645.96 441.2 654.25 433.02 660.05 424.91 662.59 416.89 661.56 408.88 657.49 400.95 650.31 393.11 640.69 385.26 630.09 377.68 619.3 370.37 609.38 363.04 601.43 355.97 595.81 349.17 592.82 342.34 592.83 335.76 595.24 329.44 599.53 323.09 605.54 316.98 612.02 311.13 618.19 302.39 625.95 285.96 629.06 278.22 623.3 273.02 616.79 268.01 608.41 263.17 598.6 258.2 587.79 253.37 576.32 248.69 564.63 243.83 552.95 239.1 541.62 234.48 530.86 229.69 520.73 224.99 511.35 220.41 502.73 215.66 494.87 211.02 487.66 206.53 480.98 201.89 474.88 197.42 469.08 193.15 463.43 188.79 458.12 184.69 452.76 180.87 447.22 177.05 441.82 173.59 436.12 170.52 430.05 167.55 424.02 165.05 417.56 163.05 410.65 161.25 403.73 160.01 396.36 159.39 388.52 159.02 380.69 159.29 372.59 160.19 364.3 161.34 356.04 163.09 347.61 165.4 339.1 167.92 330.67 170.96 322.22 174.48 313.85 178.13 305.65 182.2 297.62 186.65 289.9 191.14 282.47 195.95 275.47 201.03 269.02 206.08 262.99 211.35 257.62 216.81 253 222.18 248.83 227.7 245.43 233.36 242.79 238.88 240.44 244.53 238.69 250.27 237.43 255.87 236.05 261.58 234.81 267.4 233.51 273.07 231.53 278.87 229.1 284.79 226.03 290.58 221.89 296.53 216.96 302.62 211.22 308.62 204.55 314.79 197.36 321.15 189.91 327.44 182.32 333.93 175.14 340.63 168.79 347.28 163.36 354.16 159.4 361.28 157.17 368.36 156.43 375.7 157.5 383.28 160.23 390.85 163.91 398.69 168.55 406.79 173.69" stroke-dasharray="6 10" transform="rotate(20.200000000000003, 400, 400)" opacity="0.81"></path><path d="M411.41 184.82C419.21 189.39 427.07 193.47 434.98 196.73 442.9 198.64 450.86 199.49 458.85 199.35 466.84 197.98 474.85 196.03 482.84 193.83 490.81 191.29 498.75 189.18 506.6 187.81 514.4 187.04 522.09 187.49 529.59 189.25 537 192.06 544.17 196.23 551.04 201.62 557.74 207.92 564.07 215.15 569.95 223.08 575.59 231.41 580.71 240.06 585.25 248.82 589.47 257.48 593.05 265.97 595.95 274.21 598.5 282.04 600.34 289.52 601.46 296.66 602.28 303.32 602.42 309.7 601.91 315.86 600.6 324.47 595.68 341.13 592.59 349.57 590.78 355.12 588.99 360.94 587.31 367.07 586.22 373.14 585.42 379.58 584.98 386.41 585.31 393.22 586.08 400.46 587.3 408.15 589.3 415.84 591.64 423.81 594.22 432.02 597.35 440.25 600.52 448.71 603.62 457.38 606.95 466.02 609.97 474.82 612.59 483.68 615.12 492.45 617.05 501.17 618.31 509.73 619.25 518.01 619.41 525.94 618.77 533.34 616.73 543.3 607.94 557.74 601.37 561.62 596.37 563.06 590.76 563.37 584.63 562.63 578.21 561.53 571.36 559.8 564.15 557.73 556.78 556.15 549.14 554.93 541.31 554.47 533.39 555.51 525.35 557.94 517.23 562.01 509.09 568.03 500.92 575.75 492.76 584.96 484.61 595.43 476.48 606.56 468.4 617.69 460.36 628.29 452.36 637.51 444.44 644.64 436.55 649.41 428.72 651.17 420.98 649.71 413.26 645.56 405.61 638.65 398.05 629.57 390.49 619.6 383.19 609.41 376.15 599.9 369.1 592.04 362.3 586.16 355.75 582.57 349.17 581.67 342.84 582.99 336.75 586.14 330.63 591.07 324.73 596.72 319.07 602.44 310.59 610.4 294.57 617.01 286.98 614.15 281.87 609.81 276.93 603.57 272.13 595.76 267.21 586.77 262.41 576.79 257.75 566.2 252.92 555.27 248.21 544.27 243.6 533.47 238.83 522.95 234.16 512.91 229.61 503.43 224.9 494.49 220.31 486.13 215.86 478.3 211.3 470.99 206.9 464.06 202.7 457.44 198.45 451.16 194.43 445 190.71 438.87 187 432.93 183.63 426.86 180.65 420.62 177.78 414.45 175.35 408.01 173.41 401.28 171.66 394.56 170.45 387.52 169.83 380.15 169.45 372.79 169.68 365.28 170.51 357.68 171.59 350.11 173.24 342.5 175.43 334.91 177.82 327.4 180.72 319.99 184.07 312.77 187.57 305.73 191.48 298.96 195.75 292.58 200.08 286.47 204.73 280.85 209.65 275.79 214.57 271.06 219.71 266.95 225.04 263.51 230.31 260.35 235.74 257.81 241.3 255.83 246.76 253.91 252.34 252.36 258.03 251.04 263.59 249.4 269.26 247.67 275.02 245.68 280.66 242.92 286.42 239.62 292.29 235.66 298.04 230.72 303.92 225.07 309.94 218.79 315.87 211.79 321.95 204.49 328.2 197.14 334.37 189.87 340.73 183.17 347.28 177.41 353.77 172.62 360.48 169.29 367.39 167.61 374.27 167.31 381.38 168.66 388.71 171.54 396.03 175.23 403.59 179.79 411.4 184.81" stroke-dasharray="6 7" transform="rotate(24.24, 400, 400)" opacity="0.77"></path><path d="M415.44 195.94C422.92 200.41 430.43 204.44 437.97 207.75 445.5 209.84 453.06 210.96 460.6 211.15 468.15 210.16 475.67 208.56 483.13 206.62 490.58 204.21 497.94 202.05 505.19 200.42 512.38 199.18 519.41 198.93 526.23 199.8 532.94 201.56 539.39 204.58 545.52 208.77 551.48 213.87 557.07 219.97 562.2 226.89 567.12 234.37 571.53 242.35 575.39 250.65 578.97 259.07 581.97 267.54 584.33 275.93 586.41 284.11 587.87 292.08 588.69 299.8 589.27 307.17 589.27 314.28 588.71 321.16 588.04 327.7 586.92 334.09 585.41 340.37 583.99 346.4 582.33 352.43 580.52 358.52 579.03 364.45 577.56 370.54 576.19 376.82 575.37 383.02 574.79 389.49 574.51 396.24 574.92 402.97 575.7 410.03 576.86 417.44 578.71 424.84 580.84 432.42 583.17 440.15 585.99 447.87 588.85 455.71 591.64 463.61 594.66 471.47 597.42 479.31 599.82 487.07 602.19 494.67 604.05 502.06 605.32 509.11 606.53 518.98 604.89 535 601.98 540.59 597.77 544.38 585.52 546.53 577.71 545.34 572.06 544.34 565.97 543.1 559.51 541.9 552.87 541.47 545.94 541.67 538.77 542.81 531.51 545.43 524.08 549.4 516.53 554.85 508.94 561.94 501.28 570.37 493.59 579.89 485.89 590.24 478.19 600.86 470.51 611.15 462.84 620.7 455.2 628.76 447.63 634.77 440.06 638.58 432.56 639.64 425.13 637.81 417.71 633.63 410.35 627.01 403.09 618.45 395.82 609.11 388.8 599.5 382.02 590.42 375.24 582.72 368.69 576.67 362.38 572.59 356.04 570.87 349.93 571.18 344.04 573.22 338.12 577.04 332.41 581.75 326.9 586.82 321.34 592.19 315.97 596.88 310.78 600.47 302.98 603.53 288.02 598.64 280.82 590.8 275.93 583.82 271.17 575.64 266.52 566.59 261.73 556.93 257.04 546.86 252.45 536.65 247.72 526.4 243.09 516.33 238.57 506.58 233.92 497.11 229.4 488.08 225.02 479.49 220.54 471.28 216.24 463.46 212.14 456 207.99 448.84 204.09 441.92 200.47 435.17 196.88 428.6 193.62 422.08 190.74 415.56 187.97 409.12 185.62 402.59 183.75 395.94 182.06 389.31 180.88 382.51 180.26 375.57 179.88 368.62 180.08 361.67 180.84 354.78 181.84 347.91 183.38 341.12 185.44 334.48 187.7 327.91 190.45 321.55 193.63 315.47 196.96 309.54 200.69 303.96 204.77 298.81 208.93 293.86 213.4 289.4 218.14 285.48 225.39 280.17 240.85 272.33 248.95 269.53 254.32 267.64 259.81 265.91 265.41 264.2 270.91 262 276.51 259.57 282.21 256.75 287.8 253.15 293.5 248.98 299.3 244.19 305 238.56 310.81 232.36 316.75 225.71 322.6 218.57 328.59 211.33 334.72 204.25 340.79 197.42 347.01 191.29 353.4 186.17 359.75 182.05 366.27 179.34 372.98 178.19 379.66 178.3 386.53 179.91 393.61 182.89 400.67 186.58 407.95 191.05 415.43 195.93" stroke-dasharray="3 5" transform="rotate(28.28, 400, 400)" opacity="0.73"></path><path d="M418.69 207.05C425.83 211.41 432.98 215.38 440.11 218.73 447.24 220.97 454.36 222.34 461.43 222.85 468.5 222.25 475.51 221.02 482.43 219.39 489.32 217.21 496.1 215.11 502.72 213.35 509.29 211.79 515.66 211 521.8 211.13 527.84 211.97 533.59 213.92 539.01 216.96 544.27 220.84 549.15 225.72 553.61 231.49 557.86 237.89 561.63 244.93 564.89 252.46 567.92 260.27 570.41 268.32 572.34 276.47 574.04 284.62 575.19 292.7 575.78 300.64 576.2 308.4 576.12 315.98 575.57 323.35 574.96 330.48 573.98 337.44 572.67 344.26 571.48 350.87 570.1 357.4 568.6 363.9 567.41 370.26 566.24 376.66 565.16 383.13 564.57 389.53 564.19 396.07 564.06 402.77 564.54 409.45 565.33 416.32 566.42 423.4 568.13 430.47 570.06 437.59 572.15 444.7 574.69 451.81 577.24 458.89 579.73 465.87 582.45 472.8 584.94 479.56 587.13 486.08 590.2 495.43 593.64 511.59 593.74 517.96 589.93 525.91 576.76 529.4 570.02 528.47 562.43 527.9 545 529.49 535.41 533.02 528.82 537.09 522.03 542.37 515.09 548.91 508.09 556.73 500.99 565.55 493.81 575.08 486.62 585.06 479.39 594.98 472.16 604.32 464.92 612.77 457.69 619.69 450.49 624.63 443.31 627.56 436.15 628 429.06 625.86 421.97 621.69 414.93 615.37 407.97 607.33 401 598.6 394.27 589.58 387.75 580.94 381.23 573.44 374.93 567.31 368.84 562.84 362.73 560.43 356.82 559.81 351.12 560.82 345.38 563.53 339.83 567.24 334.46 571.5 329.04 576.33 323.79 580.85 318.71 584.66 311.04 588.86 296.28 588.44 289.14 583.49 284.3 578.52 279.58 572.29 274.95 565.04 270.21 557.01 265.56 548.33 261.01 539.23 256.33 529.84 251.76 520.35 247.3 510.92 242.73 501.55 238.29 492.4 234 483.55 229.63 474.91 225.43 466.6 221.44 458.62 217.43 450.86 213.65 443.38 210.16 436.15 206.7 429.06 203.57 422.15 200.8 415.36 198.13 408.65 195.88 402 194.08 395.39 192.45 388.8 191.31 382.22 190.7 375.63 190.31 369.05 190.47 362.62 191.17 356.37 192.09 350.13 193.52 344.1 195.45 338.32 197.57 332.59 200.15 327.16 203.15 322.07 208.07 314.78 219.82 302.43 226.5 297.47 233.47 293.06 248.43 286.07 256.3 283.11 261.54 280.91 266.92 278.69 272.4 276.33 277.8 273.41 283.31 270.15 288.91 266.47 294.43 262.04 300.04 257.09 305.75 251.61 311.38 245.46 317.11 238.91 322.95 232.08 328.71 224.99 334.59 217.99 340.6 211.32 346.55 205.04 352.63 199.55 358.85 195.12 365.04 191.66 371.38 189.56 377.87 188.92 384.34 189.39 390.98 191.23 397.78 194.29 404.57 197.96 411.54 202.32 418.68 207.05" stroke-dasharray="0 4" transform="rotate(32.32, 400, 400)" opacity="0.70"></path><path d="M421.01 218.17C427.79 222.4 434.54 226.3 441.25 229.65 447.96 232.03 454.61 233.63 461.2 234.45 467.77 234.22 474.25 233.39 480.61 232.11 486.94 230.22 493.13 228.29 499.14 226.54 507.95 224.22 524.22 223.79 531.52 226.28 536.14 228.99 540.38 232.66 544.22 237.21 547.88 242.4 551.09 248.32 553.84 254.82 556.4 261.73 558.47 269.02 560.04 276.57 561.44 284.27 562.36 292.07 562.8 299.86 563.12 307.62 563.02 315.29 562.52 322.83 562.01 330.25 561.18 337.53 560.09 344.66 559.14 351.66 558.03 358.54 556.82 365.32 555.91 372 555.02 378.64 554.21 385.24 553.84 391.8 553.63 398.37 553.64 404.97 554.17 411.56 554.95 418.21 555.99 424.9 557.56 431.6 559.3 438.18 561.16 444.64 563.42 451.07 565.69 457.33 567.9 463.37 571.44 472.18 577.34 487.9 579.35 494.51 578.25 508.18 567.33 512.82 561.56 512.87 555.01 513.83 539.69 519.47 531.13 525.11 525.22 530.39 519.08 536.69 512.76 543.97 506.39 552.21 499.87 561.09 493.25 570.35 486.6 579.75 479.89 588.82 473.13 597.14 466.37 604.47 459.58 610.29 452.8 614.24 446.02 616.35 439.26 616.25 432.52 613.87 425.8 609.74 419.1 603.73 412.45 596.21 405.81 588.08 399.36 579.64 393.11 571.47 386.86 564.22 380.8 558.08 374.93 553.32 366.19 549.61 349.54 551.92 341.61 556.61 336.33 560.71 331.19 564.8 326.2 568.52 318.67 573.3 304.11 576.24 297.05 573.78 292.28 570.69 287.6 566.37 283.02 560.97 278.33 554.77 273.74 547.76 269.25 540.14 264.65 532.07 260.15 523.65 255.78 515.08 251.31 506.35 246.98 497.65 242.79 489.07 238.55 480.54 234.49 472.21 230.63 464.14 226.76 456.18 223.13 448.47 219.77 441.02 216.46 433.67 213.46 426.54 210.81 419.62 208.27 412.76 206.12 406.06 204.4 399.52 202.83 393 201.74 386.6 201.14 380.34 200.81 371.08 203 353.97 205.46 346.18 208.63 338.76 217.27 325.77 222.6 320.26 228.38 315.17 241.39 306.71 248.49 303.11 255.77 299.41 271.06 291.6 279 287 284.28 283.28 289.66 279.2 295.13 274.69 300.54 269.55 306.04 263.97 311.63 257.99 317.15 251.53 322.77 244.83 328.48 238.04 334.14 231.19 339.89 224.58 345.75 218.45 351.56 212.81 357.49 208.02 363.53 204.28 369.53 201.49 375.67 199.98 381.93 199.79 388.17 200.61 394.56 202.64 401.07 205.75 407.57 209.36 414.22 213.6 421 218.17" stroke-dasharray="7 5" transform="rotate(36.36, 400, 400)" opacity="0.66"></path><path d="M422.27 229.29C428.67 233.38 435.01 237.19 441.28 240.53 447.55 243.01 453.73 244.81 459.81 245.92 471.94 245.3 483.56 242.85 494.42 239.88 505.06 236.42 514.73 235.12 523.14 236.76 531.09 240.73 537.56 248.11 542.34 258.28 546.54 270.29 549.03 283.93 549.82 298.33 550.34 313.1 549.54 327.83 547.7 342.15 546.43 356.25 544.86 369.92 543.35 383.14 543.16 389.71 543.12 396.2 543.23 402.62 543.81 409.03 544.58 415.38 545.55 421.66 546.99 427.93 548.55 433.97 550.2 439.76 552.21 445.53 554.21 451.01 556.15 456.18 560.6 466.33 564.15 474.92 566.41 481.61 568.41 489.8 561.41 496.98 552.39 499.27 545 503.29 536.05 509.56 525.89 518.97 515.29 532.2 503.81 548.23 491.76 565.55 479.57 582.43 467.01 596 454.34 603.58 448 604.98 441.65 604.4 435.3 601.85 428.96 597.79 422.62 592.11 416.31 585.09 410 577.54 403.86 569.69 397.89 561.99 391.91 555.03 386.1 548.95 380.45 544 369.1 538.7 358.35 538.57 348.2 542.3 337.86 549.4 328 556.19 318.62 560.62 308.93 562.86 299.6 560.61 290.68 554.1 281.4 544.61 272.47 532.05 264.01 517.69 255.28 502.23 247.1 486.39 239.7 470.94 232.31 455.54 225.92 440.87 220.79 427.14 218.38 420.33 216.34 413.72 214.7 407.32 213.21 400.95 212.16 394.76 211.57 388.79 211.23 380 213.2 364.12 215.46 357.04 219.27 347.81 224.68 339.97 231.44 333.47 238.58 326.76 246.83 321.04 255.92 315.92 265.08 309.75 274.92 303.26 285.23 295.87 295.4 286.43 306 275.57 316.91 263.46 327.63 250.19 338.71 237.15 350.11 225.74 361.37 216.54 373.03 211.29 385.06 210.83 391.06 211.94 397.16 214.12 403.36 217.25 409.56 220.8 415.86 224.89 422.26 229.29" stroke-dasharray="6 10" transform="rotate(40.400000000000006, 400, 400)" opacity="0.62"></path><path d="M422.42 240.41C434.42 247.78 446.08 253.67 457.25 257.26 468.37 257.4 478.9 255.75 488.61 253.3 498.12 249.92 506.65 248 513.96 248.37 520.89 250.43 526.45 255.53 530.49 263.31 534.1 272.91 536.23 284.41 536.9 297.06 537.45 310.45 536.91 324.19 535.5 337.8 534.68 351.47 533.6 364.8 532.56 377.59 532.89 390.36 533.72 402.65 535.11 414.28 538.11 425.92 541.33 436.28 544.47 445.24 549.95 457.63 555.52 473.8 554.19 478.14 552.08 481.28 548.15 484.32 542.56 488.18 536.31 494.51 528.59 503.1 519.68 514.37 510.37 528.48 500.12 544.37 489.23 560.53 478.18 575.5 466.67 586.91 454.94 592.66 443.18 592.78 431.27 586.2 419.35 573.97 407.43 559.92 396.05 546.04 385.24 534.88 374.37 528.63 363.99 526.83 354.12 528.67 344.1 534.03 334.47 539.88 325.27 544.46 315.81 547.96 306.68 547.99 297.93 544.38 288.89 538.27 280.2 529.05 271.99 517.64 263.59 504.88 255.74 491.14 248.67 477.21 241.65 463.03 235.59 449.21 230.74 436.11 226.31 423.06 223.32 410.76 222.01 399.38 221.4 387.99 222.61 378 225.47 369.33 228.96 360.57 233.96 353.01 240.24 346.48 246.9 339.54 254.64 333.17 263.21 326.96 271.9 319.61 281.26 311.67 291.11 302.78 300.89 292.22 311.1 280.58 321.61 268.22 331.99 255.39 342.7 243.33 353.67 233.28 364.54 225.57 375.74 221.62 387.21 222.03 398.64 225.37 410.41 231.92 422.41 240.4" stroke-dasharray="5 4" transform="rotate(44.44, 400, 400)" opacity="0.58"></path><path d="M421.44 251.53C432.61 258.63 443.36 264.51 453.55 268.45 463.68 269.32 473.16 268.48 481.8 266.68 490.27 263.64 497.76 261.48 504.11 260.97 510.16 261.55 514.96 264.68 518.41 270.22 521.57 277.37 523.45 286.52 524.1 297.06 524.75 308.51 524.49 320.66 523.5 332.99 523.11 345.59 522.48 358.02 521.85 369.99 522.42 382.01 523.35 393.49 524.68 404.19 527.38 414.89 530.19 424.23 532.88 432.17 537.63 443.24 542.63 458.68 541.66 464.28 540.04 468.8 536.83 473.76 532.13 479.86 526.89 488.22 520.29 498.58 512.53 511.01 504.42 525.32 495.36 540.51 485.61 555.13 475.69 568.07 465.25 577.4 454.47 581.5 443.66 580.75 432.59 574.22 421.42 562.86 410.24 549.91 399.47 536.89 389.16 525.94 378.8 518.97 368.83 515.74 359.29 515.81 349.62 519.32 340.28 523.88 331.31 528.01 322.13 531.98 313.26 533.47 304.74 532.07 296.01 528.79 287.63 522.63 279.73 514.17 271.71 504.36 264.24 493.15 257.53 481.27 250.91 468.93 245.21 456.53 240.67 444.49 236.51 432.42 233.7 420.87 232.45 410.08 231.83 399.29 232.89 389.69 235.48 381.22 238.65 372.61 243.24 364.89 249.02 357.86 255.18 350.33 262.37 343 270.38 335.54 278.54 327.01 287.37 317.81 296.69 307.77 305.99 296.53 315.73 284.61 325.75 272.51 335.71 260.52 345.96 249.72 356.43 241.17 366.84 234.94 377.51 232.22 388.36 233.4 399.2 237.03 410.26 243.44 421.44 251.53" stroke-dasharray="0 0" transform="rotate(48.48, 400, 400)" opacity="0.54"></path><path d="M419.38 262.65C429.71 269.45 439.54 275.28 448.77 279.49 457.95 281.02 466.44 281 474.1 279.94 484.91 276.41 501.11 274.74 506.21 279.15 509.04 284.04 510.77 290.86 511.47 299.17 512.26 308.4 512.29 318.57 511.72 329.21 511.71 340.23 511.49 351.32 511.22 362.13 511.98 373.05 512.98 383.52 514.24 393.29 516.66 403.06 519.09 411.62 521.36 418.95 524.27 426.3 526.57 432.52 528.05 437.78 529.57 443.34 529.92 448.4 529.01 453.39 527.77 459.46 525.14 466.28 521.19 474.33 516.82 484.2 511.2 495.66 504.5 508.52 497.49 522.4 489.55 536.4 480.88 549.23 472.07 560.11 462.67 567.46 452.85 570.1 443 568.63 432.81 562.25 422.41 551.74 412.01 539.88 401.89 527.77 392.12 517.15 382.31 509.71 372.81 505.3 363.64 503.77 354.38 505.45 345.39 508.48 336.72 511.7 327.9 515.44 319.35 517.6 311.14 517.63 302.79 516.46 294.78 512.81 287.25 506.99 279.66 500.01 272.61 491.41 266.3 481.79 260.11 471.64 254.8 461.02 250.56 450.35 246.7 439.58 244.07 429.01 242.88 418.86 242.27 408.71 243.19 399.42 245.51 390.92 248.36 382.28 252.51 374.19 257.79 366.44 263.43 358.2 270.05 349.9 277.45 341.3 285.03 331.83 293.27 321.74 301.99 311.05 310.75 299.64 319.93 287.98 329.4 276.62 338.83 265.81 348.55 256.48 358.45 249.49 368.31 244.7 378.38 243.11 388.56 244.93 398.74 248.76 409.05 254.98 419.38 262.65" stroke-dasharray="5 8" transform="rotate(52.52, 400, 400)" opacity="0.51"></path><path d="M416.35 273.77C425.82 280.23 434.76 285.95 443.07 290.36 451.33 292.48 458.91 293.22 465.68 292.95 475.24 290.32 489.49 287.64 494.02 290.03 496.61 293.04 498.28 297.78 499.09 303.97 500.04 310.96 500.36 319.03 500.17 327.78 500.5 336.93 500.62 346.41 500.66 355.86 501.58 365.43 502.62 374.78 503.8 383.67 505.95 392.56 508.04 400.53 509.92 407.61 512.38 414.75 514.28 421.17 515.48 427.06 516.79 433.35 517.09 439.57 516.32 446.05 515.35 453.54 513.17 461.87 509.84 471.29 506.2 482.03 501.43 493.88 495.66 506.47 489.65 519.39 482.74 531.84 475.1 542.71 467.33 551.55 458.94 557.09 450.08 558.48 441.18 556.44 431.88 550.28 422.28 540.62 412.68 529.83 403.25 518.64 394.07 508.49 384.87 500.8 375.87 495.5 367.15 492.61 358.36 492.57 349.79 493.97 341.5 495.98 333.11 498.95 324.96 501.06 317.14 501.76 309.23 501.87 301.66 500.03 294.56 496.3 287.45 491.7 280.87 485.49 274.99 478.04 269.26 470.11 264.35 461.38 260.44 452.23 256.87 442.95 254.44 433.49 253.32 424.05 252.71 414.61 253.49 405.62 255.55 397.05 258.08 388.36 261.81 379.88 266.57 371.46 271.68 362.65 277.7 353.6 284.47 344.2 291.43 334.22 299.02 323.77 307.09 313.01 315.23 301.98 323.78 291.08 332.61 280.86 341.45 271.49 350.54 263.74 359.79 258.31 369.03 254.87 378.43 254.27 387.89 256.62 397.35 260.57 406.88 266.54 416.35 273.77" stroke-dasharray="6 7" transform="rotate(56.56, 400, 400)" opacity="0.47"></path><path d="M412.5 284.89C421.1 290.99 429.16 296.54 436.6 301.07 444.01 303.68 450.74 305.12 456.73 305.63 471.51 302.81 485.2 305.79 486.97 311.71 488.09 316.68 488.68 322.77 488.84 329.67 489.46 336.93 489.88 344.72 490.18 352.75 491.2 360.89 492.27 369.09 493.37 377.15 495.26 385.22 497.03 392.76 498.56 399.78 500.59 406.9 502.13 413.7 503.05 420.34 504.11 427.38 504.33 434.65 503.64 442.35 502.83 450.86 501 460.15 498.17 470.26 495.13 481.18 491.09 492.73 486.14 504.44 481 515.97 475.03 526.61 468.34 535.49 461.54 542.4 454.12 546.31 446.19 546.64 438.22 544.19 429.8 538.3 421.03 529.5 412.26 519.75 403.55 509.52 395.02 499.94 386.47 492.22 378.05 486.3 369.84 482.31 361.6 480.75 353.52 480.58 345.69 481.2 337.8 483.03 330.13 484.55 322.77 485.24 315.37 485.85 308.31 485.05 301.69 482.73 295.1 479.89 289.03 475.57 283.62 469.98 278.36 464.02 273.87 457.07 270.3 449.4 267.03 441.62 264.8 433.32 263.76 424.66 263.15 416 263.81 407.39 265.61 398.87 267.83 390.26 271.13 381.57 275.38 372.77 279.95 363.69 285.36 354.32 291.47 344.65 297.77 334.68 304.68 324.45 312.04 314.19 319.5 304.04 327.36 294.32 335.49 285.54 343.65 277.75 352.05 271.63 360.58 267.69 369.13 265.48 377.8 265.73 386.49 268.47 395.19 272.46 403.9 278.13 412.5 284.89" stroke-dasharray="5 1" transform="rotate(60.599999999999994, 400, 400)" opacity="0.43"></path><path d="M408.02 296C415.76 301.71 422.98 307.04 429.6 311.6 439.18 315.62 454.96 317.55 461.02 316.97 469.76 317.11 476.87 327.82 477.74 335.33 478.6 340.88 479.25 347.1 479.76 353.8 480.85 360.58 481.92 367.69 482.93 375 484.59 382.31 486.06 389.47 487.29 396.49 488.93 403.59 490.12 410.72 490.78 417.97 491.6 425.54 491.7 433.5 491.03 441.93 490.32 450.89 488.75 460.47 486.32 470.55 483.75 480.99 480.31 491.63 476.07 502 471.69 511.84 466.54 520.57 460.72 527.48 454.82 532.62 448.3 535.12 441.26 534.6 434.2 531.88 426.66 526.34 418.72 518.38 410.79 509.65 402.85 500.39 395 491.49 387.15 483.93 379.38 477.66 371.76 472.87 364.12 470.05 356.62 468.46 349.33 467.71 342.01 468.21 334.89 468.76 328.07 468.94 321.25 469.39 314.74 468.91 308.67 467.32 302.64 465.52 297.11 462.48 292.19 458.28 287.43 453.85 283.36 448.38 280.14 442.02 277.19 435.58 275.16 428.39 274.19 420.57 273.6 412.74 274.14 404.66 275.69 396.4 277.61 388.11 280.49 379.55 284.23 370.78 288.25 361.88 293.05 352.69 298.48 343.33 304.11 333.91 310.3 324.45 316.93 315.22 323.66 306.33 330.77 298.09 338.13 290.94 345.55 284.79 353.2 280.25 360.96 277.68 368.74 276.54 376.63 277.48 384.51 280.49 392.41 284.42 400.28 289.75 408.02 296" stroke-dasharray="4 4" transform="rotate(64.64, 400, 400)" opacity="0.39"></path><path d="M403.14 307.12C410.03 312.4 416.42 317.45 422.28 321.95 430.76 326.48 444.74 330.48 450.17 330.92 461.98 335.14 468.33 351.23 469.4 359.25 470.53 364.85 471.57 370.99 472.49 377.6 473.93 384.2 475.14 390.97 476.08 397.87 477.38 404.85 478.26 412.07 478.68 419.57 479.25 427.29 479.22 435.43 478.55 443.96 477.87 452.77 476.48 461.97 474.36 471.36 472.17 480.78 469.23 490.05 465.59 498.75 461.85 506.77 457.44 513.58 452.4 518.66 447.31 522.22 441.63 523.54 435.45 522.37 429.24 519.52 422.56 514.38 415.48 507.26 408.39 499.53 401.25 491.25 394.14 483.1 387.03 475.89 379.96 469.53 372.99 464.25 366.03 460.48 359.17 457.71 352.49 455.72 345.81 454.88 339.32 454.3 333.11 453.64 323.96 453.11 307.61 448.69 300.72 444.17 296.47 440.74 292.84 436.35 289.97 431.05 287.33 425.7 285.52 419.52 284.63 412.55 284.06 405.59 284.48 398.2 285.8 390.5 287.42 382.8 289.9 374.76 293.14 366.49 296.63 358.21 300.81 349.73 305.57 341.22 310.5 332.83 315.96 324.58 321.82 316.75 327.78 309.39 334.11 302.8 340.67 297.32 347.3 292.77 354.14 289.68 361.08 288.3 368.06 288.05 375.12 289.51 382.17 292.65 389.23 296.45 396.26 301.39 403.14 307.12" stroke-dasharray="10 3" transform="rotate(68.68, 400, 400)" opacity="0.35"></path><path d="M398.1 318.24C410.2 327.23 420.53 335.08 428.81 340.78 440.14 343.25 453.29 348.46 456.24 356.64 458.85 363.22 460.82 372.59 462.06 384.46 464.88 396.33 466.53 409.71 466.76 424.16 467.56 439.07 466.15 455.39 462.44 471.86 458.58 487.54 452.19 500.92 443.58 509 434.79 512.22 423.94 507.86 411.45 496.14 398.97 482.54 386.15 468.3 373.65 456.37 361.19 448.82 349.06 443.85 337.93 440.07 326.93 438.42 317.1 435.17 309.23 429.28 301.9 423.41 296.91 414.34 295.07 402.15 294.26 389.96 296.83 375.97 302.13 361.25 308.24 346.81 316.73 332.27 326.79 319.4 337.25 308.49 348.96 301.29 361.12 299.56 373.42 301.15 386.01 307.81 398.1 318.24" stroke-dasharray="4 1" transform="rotate(72.72, 400, 400)" opacity="0.32"></path><path d="M393.16 329.36C403.62 337.53 412.6 345.15 419.87 351.31 429.95 355.77 442.52 363.07 445.82 370.3 448.49 375.75 450.47 383.74 451.62 394.28 453.96 404.82 455.13 417.05 455.02 430.27 455.41 443.59 453.97 457.73 450.63 471.27 447.27 483.62 441.8 493.42 434.43 498.52 426.96 499.9 417.66 495.33 406.86 485.02 396.05 473.29 384.85 460.58 373.89 449.16 362.98 440.72 352.35 434.12 342.61 428.73 333.04 425.28 324.52 421.1 317.74 415.31 311.42 409.78 307.12 401.83 305.5 391.34 304.71 380.84 306.79 368.92 311.21 356.63 316.27 344.74 323.41 333.27 331.94 323.72 340.81 315.9 350.82 311.43 361.27 311.45 371.85 313.77 382.7 320.06 393.16 329.36" stroke-dasharray="2 9" transform="rotate(76.76, 400, 400)" opacity="0.28"></path><path d="M388.56 340.48C397.42 347.74 405.11 354.9 411.44 361.19 420.34 367.15 432.17 377.01 435.63 384.04 438.24 389 440.15 396.01 441.18 405.2 443.08 414.38 443.85 424.97 443.49 436.2 443.53 447.32 442.05 458.65 439.06 468.92 436.1 477.98 431.43 484.57 425.2 487.23 418.91 487.27 411.07 482.77 401.91 473.91 392.76 464 383.23 452.98 373.87 442.5 364.57 433.89 355.51 426.4 347.24 419.91 339.13 414.94 331.95 409.78 326.25 403.82 320.94 398.21 317.32 391.04 315.94 382.17 315.19 373.3 316.82 363.64 320.39 354.06 324.47 344.89 330.29 336.51 337.33 330.07 344.64 324.96 352.96 322.69 361.71 323.93 370.56 326.63 379.69 332.36 388.56 340.48" stroke-dasharray="6 8" transform="rotate(80.80000000000001, 400, 400)" opacity="0.24"></path><path d="M384.53 351.6C391.85 357.87 398.29 364.33 403.7 370.38 411.39 377.21 422.24 389.21 425.65 396.32 428.08 401.12 429.84 407.35 430.75 415.12 432.23 422.88 432.69 431.5 432.15 440.31 431.92 448.92 430.46 457.26 427.79 464.34 423.22 472.39 407.64 472.27 396.88 462.79 389.34 454.68 381.48 445.45 373.77 436.28 366.12 428.16 358.67 420.56 351.9 413.66 345.27 407.79 339.41 401.97 334.79 395.95 330.47 390.23 327.52 383.73 326.38 376.4 325.68 369.08 326.91 361.64 329.7 354.71 332.85 348.09 337.44 342.49 343.04 338.66 348.85 335.7 355.52 335.01 362.6 336.96 369.76 339.71 377.22 344.73 384.53 351.6" stroke-dasharray="4 10" transform="rotate(84.84, 400, 400)" opacity="0.20"></path><path d="M381.28 362.72C392.89 372.38 402.17 383 408.21 392.7 414.8 400 419.18 409.6 420.31 422.16 422.89 434.71 421.61 447.98 416.93 457.26 412.52 463.91 403.91 462.7 391.99 451.67 380.07 438.85 367.33 423.39 356.67 409.78 346.44 398.43 338.91 386.82 336.82 375.13 335.9 363.43 340.79 353.78 349.15 349.46 358.07 346.97 369.67 351.49 381.28 362.72" stroke-dasharray="9 10" transform="rotate(88.88, 400, 400)" opacity="0.16"></path><path d="M378.97 373.84C387.62 381.5 394.89 390.62 399.9 399.36 405.25 406.84 408.91 415.52 409.87 424.97 410.99 438.64 399.64 450.04 387.51 440.55 378.67 431.09 369.35 419.08 361.64 407.85 354.2 397.58 348.76 387.41 347.25 378.59 348.11 366.81 366.14 363.3 378.97 373.84" stroke-dasharray="2 2" transform="rotate(92.92, 400, 400)" opacity="0.13"></path><path d="M377.71 384.96C389.22 394.96 398.36 410.45 399.44 423.03 401.9 435.6 395.34 440.12 383.66 429.43 371.97 417.01 359.9 398.03 357.69 386.13 356.72 374.22 366.2 373.33 377.71 384.96" stroke-dasharray="9 2" transform="rotate(96.96, 400, 400)" opacity="0.09"></path></g></svg>